# xmcd
# Track frame offsets:
# 150
# 16389
# 31086
# 42223
# 56989
# 70506
# 83906
# 108615
# 120683
# 131829
# 142892
# 152047
#
# Disc length: 2200 seconds
# Revision: 0
# Processed by: cddbd v1.5PL3 Copyright (c) Steve Scherf et al.
# Submitted via: VisiTrax 2.9.9.202 - For more info visit www.synapsa.com
#
DISCID=9f08960c
DTITLE=Tommy Cash - Special Edition
DYEAR=2003
DGENRE=
TTITLE0=If You Could Read My Mind
TTITLE1=Those Peopel Who Are Heroes
TTITLE2=Keep On The Sunny Side
TTITLE3=Lookin´For An Old Friend Like You
TTITLE4=Sometimes Late At Night
TTITLE5=He Is There
TTITLE6=Johnny Cash Tribut Medley
TTITLE7=Amazing Grace
TTITLE8=I Never Be Young Again
TTITLE9=I´ve Gotta Travel on
TTITLE10=If My Nose Was Running Money
TTITLE11=Dim Lights,Thick Smoke,And Loud,Loud Music
EXTD=
EXTT0=
EXTT1=
EXTT2=
EXTT3=
EXTT4=
EXTT5=
EXTT6=
EXTT7=
EXTT8=
EXTT9=
EXTT10=
EXTT11=
PLAYORDER=
